<svg width="22" height="22" viewBox="0 0 22 22" fill="none" xmlns="http://www.w3.org/2000/svg">
<path d="M12.9626 11L21.8564 2.10669C22.0478 1.91503 22.0478 1.60447 21.8564 1.41281L20.588 0.143691C20.496 0.0519141 20.3708 0 20.2408 0C20.1105 0 19.9856 0.0519141 19.8936 0.143691L11.0001 9.03723L2.10654 0.143691C1.9223 -0.0405579 1.59621 -0.0403262 1.41242 0.143691L0.144237 1.41281C-0.047428 1.60447 -0.047428 1.91503 0.144237 2.10669L9.03777 11L0.144237 19.8933C-0.047428 20.085 -0.047428 20.3955 0.144237 20.5872L1.41266 21.8563C1.50467 21.9481 1.62958 22 1.75983 22C1.89008 22 2.01477 21.9481 2.10678 21.8563L11.0003 12.9628L19.8939 21.8563C19.9859 21.9481 20.111 22 20.241 22C20.371 22 20.4962 21.9481 20.5882 21.8563L21.8566 20.5872C22.0481 20.3955 22.0481 20.085 21.8566 19.8933L12.9626 11Z" fill="white"/>
</svg>
